<mxfile host="Electron" modified="2023-04-11T02:19:02.919Z" agent="Mozilla/5.0 (X11; Linux x86_64) AppleWebKit/537.36 (KHTML, like Gecko) draw.io/21.1.2 Chrome/106.0.5249.199 Electron/21.4.3 Safari/537.36" etag="q6e0iEzc3BnxxF4T35gL" version="21.1.2" type="device">
  <diagram name="Page-1" id="xFve3AKenTTj-rfzsBR3">
    <mxGraphModel dx="2074" dy="1194" grid="1" gridSize="10" guides="1" tooltips="1" connect="1" arrows="1" fold="1" page="1" pageScale="1" pageWidth="850" pageHeight="1100" math="0" shadow="0">
      <root>
        <mxCell id="0" />
        <mxCell id="1" parent="0" />
        <mxCell id="SeilgGvv4biJxrMgDHm7-17" value="" style="group;align=left;" parent="1" vertex="1" connectable="0">
          <mxGeometry x="320" y="80" width="120" height="140" as="geometry" />
        </mxCell>
        <mxCell id="SeilgGvv4biJxrMgDHm7-4" value="Player" style="rounded=0;whiteSpace=wrap;html=1;align=center;" parent="SeilgGvv4biJxrMgDHm7-17" vertex="1">
          <mxGeometry x="-40" width="160" height="20" as="geometry" />
        </mxCell>
        <mxCell id="SeilgGvv4biJxrMgDHm7-5" value="-userID&lt;br&gt;-username:String&lt;br&gt;-password:String" style="rounded=0;whiteSpace=wrap;html=1;align=left;" parent="SeilgGvv4biJxrMgDHm7-17" vertex="1">
          <mxGeometry x="-40" y="20" width="160" height="60" as="geometry" />
        </mxCell>
        <mxCell id="SeilgGvv4biJxrMgDHm7-47" style="edgeStyle=orthogonalEdgeStyle;rounded=0;orthogonalLoop=1;jettySize=auto;html=1;exitX=0.25;exitY=1;exitDx=0;exitDy=0;entryX=0.25;entryY=0;entryDx=0;entryDy=0;endArrow=none;endFill=0;startSize=6;endSize=15;strokeWidth=1;align=left;" parent="1" source="SeilgGvv4biJxrMgDHm7-14" target="SeilgGvv4biJxrMgDHm7-34" edge="1">
          <mxGeometry relative="1" as="geometry" />
        </mxCell>
        <mxCell id="SeilgGvv4biJxrMgDHm7-14" value="-login(username, password)&lt;br&gt;-logout()&lt;br&gt;-closeGame()" style="rounded=0;whiteSpace=wrap;html=1;align=left;" parent="1" vertex="1">
          <mxGeometry x="280" y="160" width="160" height="80" as="geometry" />
        </mxCell>
        <mxCell id="SeilgGvv4biJxrMgDHm7-34" value="LaunchGame" style="rounded=0;whiteSpace=wrap;html=1;container=0;align=center;" parent="1" vertex="1">
          <mxGeometry x="280" y="320" width="160" height="20" as="geometry" />
        </mxCell>
        <mxCell id="SeilgGvv4biJxrMgDHm7-78" style="edgeStyle=orthogonalEdgeStyle;rounded=0;orthogonalLoop=1;jettySize=auto;html=1;exitX=1;exitY=0.25;exitDx=0;exitDy=0;entryX=0;entryY=0.25;entryDx=0;entryDy=0;strokeWidth=1;fontSize=12;endArrow=diamond;endFill=0;startSize=6;endSize=15;" parent="1" source="SeilgGvv4biJxrMgDHm7-35" target="SeilgGvv4biJxrMgDHm7-38" edge="1">
          <mxGeometry relative="1" as="geometry" />
        </mxCell>
        <mxCell id="SeilgGvv4biJxrMgDHm7-35" value="-getSaveData(userID)&lt;br&gt;-startGame()&lt;br&gt;-confirmClose()" style="rounded=0;whiteSpace=wrap;html=1;container=0;align=left;" parent="1" vertex="1">
          <mxGeometry x="280" y="420" width="160" height="60" as="geometry" />
        </mxCell>
        <mxCell id="SeilgGvv4biJxrMgDHm7-54" style="edgeStyle=orthogonalEdgeStyle;rounded=0;orthogonalLoop=1;jettySize=auto;html=1;exitX=1;exitY=0.25;exitDx=0;exitDy=0;entryX=0;entryY=0.25;entryDx=0;entryDy=0;strokeWidth=1;endArrow=none;endFill=0;startSize=6;endSize=15;" parent="1" source="SeilgGvv4biJxrMgDHm7-36" target="SeilgGvv4biJxrMgDHm7-42" edge="1">
          <mxGeometry relative="1" as="geometry">
            <Array as="points">
              <mxPoint x="520" y="360" />
              <mxPoint x="520" y="115" />
            </Array>
          </mxGeometry>
        </mxCell>
        <mxCell id="SeilgGvv4biJxrMgDHm7-36" value="-username&lt;br&gt;-password&lt;br&gt;-userID&lt;br&gt;-saveData" style="rounded=0;whiteSpace=wrap;html=1;align=left;" parent="1" vertex="1">
          <mxGeometry x="280" y="340" width="160" height="80" as="geometry" />
        </mxCell>
        <mxCell id="SeilgGvv4biJxrMgDHm7-37" value="PlayGame" style="rounded=0;whiteSpace=wrap;html=1;container=0;align=center;" parent="1" vertex="1">
          <mxGeometry x="860" y="330" width="160" height="20" as="geometry" />
        </mxCell>
        <mxCell id="SeilgGvv4biJxrMgDHm7-38" value="-getSaveData(userID)&lt;br&gt;-startGame()&lt;br&gt;-updateSaveData(userID)&lt;br&gt;-closeGame()" style="rounded=0;whiteSpace=wrap;html=1;container=0;align=left;" parent="1" vertex="1">
          <mxGeometry x="560" y="420" width="160" height="60" as="geometry" />
        </mxCell>
        <mxCell id="SeilgGvv4biJxrMgDHm7-64" style="edgeStyle=orthogonalEdgeStyle;rounded=0;orthogonalLoop=1;jettySize=auto;html=1;exitX=1;exitY=0.75;exitDx=0;exitDy=0;entryX=0;entryY=0.25;entryDx=0;entryDy=0;strokeWidth=1;fontSize=15;endArrow=diamond;endFill=0;startSize=6;endSize=15;" parent="1" source="SeilgGvv4biJxrMgDHm7-39" target="SeilgGvv4biJxrMgDHm7-59" edge="1">
          <mxGeometry relative="1" as="geometry" />
        </mxCell>
        <mxCell id="SeilgGvv4biJxrMgDHm7-39" value="-username&lt;br&gt;-password&lt;br&gt;-userID&lt;br&gt;-saveData" style="rounded=0;whiteSpace=wrap;html=1;align=left;" parent="1" vertex="1">
          <mxGeometry x="560" y="340" width="160" height="80" as="geometry" />
        </mxCell>
        <mxCell id="SeilgGvv4biJxrMgDHm7-40" value="Database" style="rounded=0;whiteSpace=wrap;html=1;container=0;align=center;" parent="1" vertex="1">
          <mxGeometry x="760" y="80" width="160" height="20" as="geometry" />
        </mxCell>
        <mxCell id="SeilgGvv4biJxrMgDHm7-41" value="-checkUserID(userID)&lt;br&gt;-getSaveData(userID)&lt;br&gt;-updateSaveData(userID)" style="rounded=0;whiteSpace=wrap;html=1;container=0;align=left;" parent="1" vertex="1">
          <mxGeometry x="760" y="160" width="160" height="80" as="geometry" />
        </mxCell>
        <mxCell id="SeilgGvv4biJxrMgDHm7-42" value="-username&lt;br&gt;-password&lt;br&gt;-userID&lt;br&gt;-saveData" style="rounded=0;whiteSpace=wrap;html=1;align=left;" parent="1" vertex="1">
          <mxGeometry x="760" y="100" width="160" height="60" as="geometry" />
        </mxCell>
        <mxCell id="SeilgGvv4biJxrMgDHm7-43" value="CloseGame" style="rounded=0;whiteSpace=wrap;html=1;container=0;align=center;" parent="1" vertex="1">
          <mxGeometry x="100" y="320" width="160" height="20" as="geometry" />
        </mxCell>
        <mxCell id="SeilgGvv4biJxrMgDHm7-44" value="-closeGame()&lt;br&gt;-updateSaveData(userID)&lt;br&gt;-confirmClose()&lt;br&gt;-logout()" style="rounded=0;whiteSpace=wrap;html=1;container=0;align=left;" parent="1" vertex="1">
          <mxGeometry x="100" y="370" width="160" height="70" as="geometry" />
        </mxCell>
        <mxCell id="SeilgGvv4biJxrMgDHm7-45" value="userID" style="rounded=0;whiteSpace=wrap;html=1;align=left;" parent="1" vertex="1">
          <mxGeometry x="100" y="340" width="160" height="30" as="geometry" />
        </mxCell>
        <mxCell id="SeilgGvv4biJxrMgDHm7-56" value="accesses" style="text;html=1;align=center;verticalAlign=middle;resizable=0;points=[];autosize=1;strokeColor=none;fillColor=none;fontSize=12;" parent="1" vertex="1">
          <mxGeometry x="435" y="330" width="70" height="30" as="geometry" />
        </mxCell>
        <mxCell id="SeilgGvv4biJxrMgDHm7-61" style="edgeStyle=orthogonalEdgeStyle;rounded=0;orthogonalLoop=1;jettySize=auto;html=1;exitX=0.5;exitY=0;exitDx=0;exitDy=0;entryX=0;entryY=0.25;entryDx=0;entryDy=0;strokeWidth=1;fontSize=15;endArrow=none;endFill=0;startSize=6;endSize=15;" parent="1" source="SeilgGvv4biJxrMgDHm7-58" target="SeilgGvv4biJxrMgDHm7-41" edge="1">
          <mxGeometry relative="1" as="geometry" />
        </mxCell>
        <mxCell id="SeilgGvv4biJxrMgDHm7-58" value="GameControl" style="rounded=0;whiteSpace=wrap;html=1;container=0;align=center;" parent="1" vertex="1">
          <mxGeometry x="560" y="320" width="160" height="20" as="geometry" />
        </mxCell>
        <mxCell id="SeilgGvv4biJxrMgDHm7-59" value="-enterInput(input)&lt;br&gt;-move(input)&lt;br&gt;-update(display)&lt;br&gt;-startClose()" style="rounded=0;whiteSpace=wrap;html=1;container=0;align=left;" parent="1" vertex="1">
          <mxGeometry x="860" y="390" width="160" height="70" as="geometry" />
        </mxCell>
        <mxCell id="SeilgGvv4biJxrMgDHm7-60" value="-input&lt;br&gt;-display" style="rounded=0;whiteSpace=wrap;html=1;align=left;" parent="1" vertex="1">
          <mxGeometry x="860" y="350" width="160" height="40" as="geometry" />
        </mxCell>
        <mxCell id="SeilgGvv4biJxrMgDHm7-62" value="updates" style="text;html=1;align=center;verticalAlign=middle;resizable=0;points=[];autosize=1;strokeColor=none;fillColor=none;fontSize=12;labelBackgroundColor=default;" parent="1" vertex="1">
          <mxGeometry x="580" y="290" width="70" height="30" as="geometry" />
        </mxCell>
        <mxCell id="SeilgGvv4biJxrMgDHm7-65" style="edgeStyle=orthogonalEdgeStyle;rounded=0;orthogonalLoop=1;jettySize=auto;html=1;exitX=0;exitY=0.5;exitDx=0;exitDy=0;entryX=0;entryY=0.5;entryDx=0;entryDy=0;strokeWidth=1;fontSize=15;endArrow=none;endFill=0;startSize=6;endSize=15;" parent="1" source="SeilgGvv4biJxrMgDHm7-5" target="SeilgGvv4biJxrMgDHm7-44" edge="1">
          <mxGeometry relative="1" as="geometry">
            <Array as="points">
              <mxPoint x="50" y="130" />
              <mxPoint x="50" y="400" />
              <mxPoint x="100" y="400" />
            </Array>
          </mxGeometry>
        </mxCell>
        <mxCell id="SeilgGvv4biJxrMgDHm7-66" value="initiates" style="text;html=1;align=center;verticalAlign=middle;resizable=0;points=[];autosize=1;strokeColor=none;fillColor=none;fontSize=12;" parent="1" vertex="1">
          <mxGeometry x="210" y="100" width="60" height="30" as="geometry" />
        </mxCell>
        <mxCell id="SeilgGvv4biJxrMgDHm7-68" value="1" style="text;html=1;align=center;verticalAlign=middle;resizable=0;points=[];autosize=1;strokeColor=none;fillColor=none;fontSize=15;" parent="1" vertex="1">
          <mxGeometry x="640" y="290" width="30" height="30" as="geometry" />
        </mxCell>
        <mxCell id="SeilgGvv4biJxrMgDHm7-69" value="1" style="text;html=1;align=center;verticalAlign=middle;resizable=0;points=[];autosize=1;strokeColor=none;fillColor=none;fontSize=15;" parent="1" vertex="1">
          <mxGeometry x="730" y="175" width="30" height="30" as="geometry" />
        </mxCell>
        <mxCell id="SeilgGvv4biJxrMgDHm7-70" value="initiates" style="text;html=1;align=center;verticalAlign=middle;resizable=0;points=[];autosize=1;strokeColor=none;fillColor=none;fontSize=12;" parent="1" vertex="1">
          <mxGeometry x="435" y="435" width="60" height="30" as="geometry" />
        </mxCell>
        <mxCell id="SeilgGvv4biJxrMgDHm7-71" value="initiates" style="text;html=1;align=center;verticalAlign=middle;resizable=0;points=[];autosize=1;strokeColor=none;fillColor=none;fontSize=12;" parent="1" vertex="1">
          <mxGeometry x="715" y="400" width="60" height="30" as="geometry" />
        </mxCell>
        <mxCell id="SeilgGvv4biJxrMgDHm7-72" value="1" style="text;html=1;align=center;verticalAlign=middle;resizable=0;points=[];autosize=1;strokeColor=none;fillColor=none;fontSize=12;" parent="1" vertex="1">
          <mxGeometry x="435" y="355" width="30" height="30" as="geometry" />
        </mxCell>
        <mxCell id="SeilgGvv4biJxrMgDHm7-73" value="1" style="text;html=1;align=center;verticalAlign=middle;resizable=0;points=[];autosize=1;strokeColor=none;fillColor=none;fontSize=12;" parent="1" vertex="1">
          <mxGeometry x="735" y="90" width="30" height="30" as="geometry" />
        </mxCell>
        <mxCell id="SeilgGvv4biJxrMgDHm7-74" value="1" style="text;html=1;align=center;verticalAlign=middle;resizable=0;points=[];autosize=1;strokeColor=none;fillColor=none;fontSize=12;" parent="1" vertex="1">
          <mxGeometry x="315" y="235" width="30" height="30" as="geometry" />
        </mxCell>
        <mxCell id="SeilgGvv4biJxrMgDHm7-75" value="1" style="text;html=1;align=center;verticalAlign=middle;resizable=0;points=[];autosize=1;strokeColor=none;fillColor=none;fontSize=12;" parent="1" vertex="1">
          <mxGeometry x="315" y="290" width="30" height="30" as="geometry" />
        </mxCell>
        <mxCell id="SeilgGvv4biJxrMgDHm7-76" value="1" style="text;html=1;align=center;verticalAlign=middle;resizable=0;points=[];autosize=1;strokeColor=none;fillColor=none;fontSize=12;" parent="1" vertex="1">
          <mxGeometry x="715" y="370" width="30" height="30" as="geometry" />
        </mxCell>
        <mxCell id="SeilgGvv4biJxrMgDHm7-77" value="1" style="text;html=1;align=center;verticalAlign=middle;resizable=0;points=[];autosize=1;strokeColor=none;fillColor=none;fontSize=12;" parent="1" vertex="1">
          <mxGeometry x="830" y="370" width="30" height="30" as="geometry" />
        </mxCell>
        <mxCell id="SeilgGvv4biJxrMgDHm7-79" value="1" style="text;html=1;align=center;verticalAlign=middle;resizable=0;points=[];autosize=1;strokeColor=none;fillColor=none;fontSize=12;" parent="1" vertex="1">
          <mxGeometry x="435" y="405" width="30" height="30" as="geometry" />
        </mxCell>
        <mxCell id="SeilgGvv4biJxrMgDHm7-80" value="1" style="text;html=1;align=center;verticalAlign=middle;resizable=0;points=[];autosize=1;strokeColor=none;fillColor=none;fontSize=12;" parent="1" vertex="1">
          <mxGeometry x="530" y="405" width="30" height="30" as="geometry" />
        </mxCell>
        <mxCell id="SeilgGvv4biJxrMgDHm7-81" value="1" style="text;html=1;align=center;verticalAlign=middle;resizable=0;points=[];autosize=1;strokeColor=none;fillColor=none;fontSize=12;" parent="1" vertex="1">
          <mxGeometry x="245" y="125" width="30" height="30" as="geometry" />
        </mxCell>
        <mxCell id="SeilgGvv4biJxrMgDHm7-82" value="1" style="text;html=1;align=center;verticalAlign=middle;resizable=0;points=[];autosize=1;strokeColor=none;fillColor=none;fontSize=12;" parent="1" vertex="1">
          <mxGeometry x="65" y="365" width="30" height="30" as="geometry" />
        </mxCell>
        <mxCell id="SeilgGvv4biJxrMgDHm7-83" value="launches" style="text;html=1;align=center;verticalAlign=middle;resizable=0;points=[];autosize=1;strokeColor=none;fillColor=none;fontSize=12;" parent="1" vertex="1">
          <mxGeometry x="260" y="235" width="70" height="30" as="geometry" />
        </mxCell>
        <mxCell id="SeilgGvv4biJxrMgDHm7-84" value="accepts" style="text;html=1;align=center;verticalAlign=middle;resizable=0;points=[];autosize=1;strokeColor=none;fillColor=none;fontSize=12;" parent="1" vertex="1">
          <mxGeometry x="265" y="300" width="60" height="30" as="geometry" />
        </mxCell>
        <mxCell id="SeilgGvv4biJxrMgDHm7-85" value="provides" style="text;html=1;align=center;verticalAlign=middle;resizable=0;points=[];autosize=1;strokeColor=none;fillColor=none;fontSize=12;" parent="1" vertex="1">
          <mxGeometry x="675" y="80" width="70" height="30" as="geometry" />
        </mxCell>
        <mxCell id="SeilgGvv4biJxrMgDHm7-86" value="provides" style="text;html=1;align=center;verticalAlign=middle;resizable=0;points=[];autosize=1;strokeColor=none;fillColor=none;fontSize=12;" parent="1" vertex="1">
          <mxGeometry x="675" y="175" width="70" height="30" as="geometry" />
        </mxCell>
        <mxCell id="SeilgGvv4biJxrMgDHm7-87" value="accepts" style="text;html=1;align=center;verticalAlign=middle;resizable=0;points=[];autosize=1;strokeColor=none;fillColor=none;fontSize=12;" parent="1" vertex="1">
          <mxGeometry x="790" y="400" width="60" height="30" as="geometry" />
        </mxCell>
        <mxCell id="SeilgGvv4biJxrMgDHm7-88" value="closes" style="text;html=1;align=center;verticalAlign=middle;resizable=0;points=[];autosize=1;strokeColor=none;fillColor=none;fontSize=12;" parent="1" vertex="1">
          <mxGeometry x="40" y="390" width="60" height="30" as="geometry" />
        </mxCell>
      </root>
    </mxGraphModel>
  </diagram>
</mxfile>
